<?xml version="1.0" encoding="utf-8"?>
<!-- Generator: Adobe Illustrator 25.2.1, SVG Export Plug-In . SVG Version: 6.00 Build 0)  -->
<svg version="1.1" id="Layer_1" xmlns="http://www.w3.org/2000/svg" xmlns:xlink="http://www.w3.org/1999/xlink" x="0px" y="0px"
	 viewBox="0 0 290.3 77.6" style="enable-background:new 0 0 290.3 77.6;" xml:space="preserve">
<style type="text/css">
	.st0{fill:#FED330;}
	.st1{fill:#FFFFFF;}
	.st2{fill:#927BF9;}
	.st3{fill:#373660;}
	.st4{fill:#1EDECB;}
	.st5{fill:#4C4C4C;}
</style>
<path class="st0" d="M69.2,28.9c0,9.5-4.5,17.9-11.6,23.1c0.1-1.1,0.2-2.3,0.2-3.5c0-11.9-7.2-22.2-17.6-26.6
	c3.5-1.5,7.3-2.3,11.4-2.3c6.5,0,12.5,2.2,17.4,5.8C69.2,26.6,69.2,27.8,69.2,28.9z"/>
<path class="st1" d="M57.9,48.6c0,1.2-0.1,2.3-0.2,3.5c-4.8,3.6-10.8,5.8-17.4,5.8c-6.5,0-12.5-2.2-17.4-5.8
	c-0.1-1.1-0.2-2.3-0.2-3.5c0-11.9,7.2-22.2,17.6-26.6C50.6,26.4,57.9,36.7,57.9,48.6z"/>
<path class="st2" d="M57.7,52.1c-1.2,10.4-8.1,19.2-17.4,23.2c-3.5,1.5-7.3,2.3-11.4,2.3C13,77.6,0,64.6,0,48.6
	c0-9.5,4.5-17.9,11.6-23.1c-0.1,1.1-0.2,2.3-0.2,3.5c0,9.5,4.5,17.9,11.6,23.1c4.8,3.6,10.8,5.8,17.4,5.8
	C46.8,57.9,52.8,55.7,57.7,52.1z"/>
<g>
	<path class="st3" d="M66.2,16.1c1,2,1.7,4.1,2.2,6.3l-0.5,2.4c-1.9-1.3-4-2.4-6.2-3.3c-3.3-1.2-6.8-1.9-10.5-1.9
		c-4.1,0-8.1,0.9-11.7,2.4c-10.6,4.5-18,15-18,27.3c0,1.2,0.1,2.4,0.2,3.5C14.5,47.3,9.8,38.7,9.8,29c0-1.2,0.1-2.4,0.2-3.5
		C11.8,10.7,24.3-0.7,39.5-0.7c9.4,0,17.8,4.4,23.3,11.3l8-2.6L66.2,16.1z"/>
</g>
<path class="st4" d="M80.6,48.6c0,16-13,28.9-28.9,28.9c-4,0-7.9-0.8-11.4-2.3c-9.3-4-16.1-12.7-17.4-23.2
	c4.8,3.6,10.8,5.8,17.4,5.8s12.5-2.2,17.4-5.8c0.1-1.1,0.2-2.3,0.2-3.5c0-11.9-7.2-22.2-17.6-26.6c3.5-1.5,7.3-2.3,11.4-2.3
	c3.6,0,7.1,0.7,10.2,1.9c0.9,0.3,1.8,0.7,2.6,1.1l-2.1-4.3l1.6-6.9c3.4-2.6,7.9-3.2,7.9-3.2L69,25.5C76.1,30.8,80.6,39.2,80.6,48.6z
	"/>
<path class="st2" d="M61.9,35L61.9,35c0-5.7-4.7-10.4-10.4-10.4H47c-0.2,0-0.2-0.2-0.1-0.3l19.7-10.8c0.1-0.1,0.3,0,0.2,0.2L62.2,35
	C62.2,35.2,61.9,35.2,61.9,35z"/>
<path class="st1" d="M67.8,37.4v9.7c0,10.2-8.3,18.4-18.5,18.4H31.1c-10.2,0-18.5-8.2-18.5-18.4v-9.7c0-10.2,8.3-18.4,18.5-18.4
	h18.1c1.1,0,2.2,0.1,3.2,0.3c6.1,1.1,11.2,5.1,13.7,10.6C67.2,32.2,67.8,34.7,67.8,37.4z"/>
<g>
	<circle class="st5" cx="27.2" cy="42.2" r="2.9"/>
	<circle class="st5" cx="40.2" cy="42.2" r="2.9"/>
	<circle class="st5" cx="53.2" cy="42.2" r="2.9"/>
</g>
<path class="st1" d="M69,64.6c0.7,1.1-0.5,2.5-1.7,1.9l-2.2-0.9l-4.3-1.9c-0.8-0.4-1.1-1.4-0.5-2.1l1.4-1.6l1.4-1.6
	c0.6-0.7,1.7-0.6,2.2,0.2l2.4,4.1L69,64.6z"/>
<path class="st2" d="M71.3,9.3l-2.1,9.8l-0.7,3.3L68,24.7l-0.6,2.8c-0.1,0.3-0.5,0.4-0.6,0.1c-1.2-2.3-2.8-4.4-4.8-6.1
	c-2.3-2-5.1-3.4-8.2-4.1c-0.3-0.1-0.4-0.5-0.1-0.7l8-3.7l2.2-1l7-3.2C71.1,8.8,71.4,9.1,71.3,9.3z"/>
<path class="st4" d="M77.8,20.7c0.9,1.8-0.5,4.2-2.5,4.3h0l-2.6,0.2c-0.8,0-1.3-0.9-0.8-1.7l1.5-2.5v0C74.4,19,76.9,18.9,77.8,20.7
	L77.8,20.7L77.8,20.7z"/>
<path class="st4" d="M77.8,28.1c-0.4,1-1.7,1.3-2.5,0.6v0l-1-0.9c-0.3-0.3-0.1-0.8,0.3-0.9l1.4-0.3h0C77.2,26.3,78.2,27.2,77.8,28.1
	L77.8,28.1L77.8,28.1z"/>
<g>
	<path class="st3" d="M1.3,25.2C0.9,23.5,2.4,22,4,22.3h0l2.2,0.5c0.7,0.1,0.9,1,0.4,1.5L5,26l0,0C3.8,27.2,1.7,26.8,1.3,25.2
		L1.3,25.2L1.3,25.2z"/>
</g>
<g>
	<path class="st3" d="M1.9,15.5c1.4-1.6,4.5-1.2,5.5,0.6l0,0l1.3,2.4c0.4,0.8-0.3,1.6-1.3,1.5l-3.2-0.4h0
		C1.8,19.4,0.5,17.1,1.9,15.5L1.9,15.5L1.9,15.5z"/>
</g>
<g>
	<path class="st3" d="M107,49.5c1.6,0,3-0.2,4.1-0.7s2.1-1,2.9-1.6c0.8-0.6,1.5-1.1,2.1-1.6s1.2-0.7,1.9-0.7c0.8,0,1.2,0.6,1.2,1.8
		c0,0.6-0.1,1.4-0.2,2.3c-0.2,0.9-0.4,1.9-0.6,3c-0.2,0.7-0.5,1.4-1.2,2.2c-0.6,0.8-1.4,1.5-2.5,2.2c-1.1,0.7-2.4,1.3-3.9,1.7
		c-1.6,0.5-3.3,0.7-5.3,0.7c-2,0-4-0.3-6-0.9s-3.8-1.6-5.4-3c-1.6-1.4-2.9-3.3-3.8-5.7c-1-2.4-1.5-5.4-1.5-9c0-1.3,0.1-2.8,0.3-4.5
		c0.2-1.7,0.5-3.5,1-5.3c0.5-1.8,1.2-3.6,2.2-5.3c0.9-1.7,2.1-3.3,3.6-4.7c1.5-1.4,3.2-2.5,5.3-3.3c2.1-0.8,4.6-1.3,7.5-1.3
		c2.3,0,4.3,0.3,6,0.8c1.7,0.6,3.1,1.3,4.2,2.3c1.1,1,1.9,2.1,2.5,3.4s0.8,2.7,0.8,4.1c0,2.5-0.7,4.4-2.2,5.5
		c-1.5,1.2-3.6,1.7-6.3,1.7c-0.9,0-1.4-0.1-1.6-0.2c-0.2-0.1-0.3-0.4-0.3-0.9c0-1.3-0.1-2.5-0.1-3.5c0-1-0.2-1.8-0.4-2.4
		c-0.2-0.6-0.6-1.1-1.1-1.4c-0.5-0.3-1.2-0.4-2-0.4c-1.3,0-2.3,0.3-3.2,0.8c-0.9,0.5-1.6,1.2-2.2,2.1c-0.6,0.8-1.1,1.8-1.5,2.9
		c-0.4,1.1-0.7,2.1-0.9,3.2c-0.2,1.1-0.4,2.2-0.4,3.2c-0.1,1-0.1,1.9-0.1,2.7c0,3.6,0.6,6.2,1.8,7.7C102.7,48.7,104.5,49.5,107,49.5
		z"/>
	<path class="st3" d="M144.7,50.8c0.1-1.3,0.2-2.7,0.4-4.1c0.1-1.4,0.3-2.8,0.4-4.1c0.1-1.3,0.2-2.5,0.3-3.5c0.1-1,0.1-1.8,0.1-2.2
		c0-1-0.2-1.9-0.7-2.7c-0.5-0.8-1.4-1.2-2.9-1.2c-1.9,0-3.4,0.9-4.6,2.7c-1.2,1.8-1.8,4.1-2,7.1c-0.1,0.8-0.2,2-0.3,3.5
		c-0.1,1.5-0.2,3-0.4,4.5c-0.1,1.5-0.2,2.9-0.3,4.1c-0.1,1.2-0.1,1.9-0.1,2.2c0,0.5-0.1,0.8-0.3,0.9c-0.2,0.2-0.5,0.2-1,0.2h-2.1
		c-1.2,0-2.2-0.1-3-0.4c-0.8-0.3-1.4-0.6-1.8-1.1c-0.5-0.5-0.8-1.1-0.9-1.7c-0.2-0.7-0.3-1.5-0.3-2.4c0-0.9,0.1-2.1,0.2-3.6
		c0.1-1.6,0.3-3.7,0.6-6.4c0.2-2.7,0.5-6.2,0.8-10.5c0.3-4.2,0.6-9.5,1-15.8c0-0.9,0.1-1.4,0.3-1.5c0.1-0.1,0.4-0.2,0.9-0.2h2.3
		c1.2,0,2.2,0.1,3,0.4c0.8,0.3,1.4,0.6,1.9,1.1c0.5,0.5,0.8,1,1,1.6c0.2,0.6,0.3,1.2,0.3,1.9c0,0.7-0.1,2-0.2,4
		c-0.1,1.9-0.3,4.2-0.5,6.8c1.2-2,2.5-3.3,3.9-4.1c1.4-0.7,3.3-1.1,5.5-1.1c1.7,0,3.1,0.2,4.3,0.5c1.2,0.4,2.2,1,3,1.8
		c0.8,0.8,1.4,1.9,1.8,3.3c0.4,1.4,0.6,3,0.6,5c0,0.6-0.1,1.7-0.2,3.2c-0.1,1.5-0.3,3.3-0.4,5.2c-0.2,2-0.4,4-0.5,6.2
		c-0.2,2.1-0.3,4.1-0.4,5.9c0,0.4-0.1,0.8-0.1,1c0,0.2-0.1,0.4-0.2,0.5c-0.1,0.1-0.2,0.2-0.4,0.2c-0.2,0-0.5,0.1-0.8,0.1h-1.9
		c-1.3,0-2.3-0.1-3.1-0.4c-0.8-0.2-1.4-0.6-1.8-1c-0.4-0.4-0.7-1-0.9-1.6c-0.2-0.6-0.3-1.4-0.3-2.2c0-0.4,0-0.8,0-1.1
		C144.7,51.4,144.7,51.1,144.7,50.8z"/>
	<path class="st3" d="M159.3,50.8c0-3.5,1.6-6.3,4.8-8.3s7.9-3.1,14.1-3.2c0-0.4,0.1-0.8,0.1-1.1c0-0.3,0-0.7,0-1.1
		c0-1.3-0.2-2.3-0.7-3s-1.5-1.1-3-1.1c-0.8,0-1.5,0.1-2,0.4c-0.5,0.2-0.9,0.6-1.2,1c-0.3,0.4-0.6,0.9-0.8,1.5
		c-0.2,0.6-0.4,1.2-0.5,1.9c-0.1,0.4-0.3,0.6-0.5,0.7c-0.3,0.1-0.7,0.1-1.3,0.1c-4,0-6-1.5-6-4.5c0-1.2,0.3-2.4,0.9-3.5
		c0.6-1.1,1.4-2.1,2.5-2.9c1.1-0.8,2.5-1.4,4.2-1.9c1.7-0.5,3.7-0.7,5.9-0.7c4.4,0,7.5,0.9,9.5,2.7c2,1.8,2.9,4.4,2.9,7.7
		c0,0.4,0,1.2-0.1,2.3c-0.1,1.1-0.2,2.3-0.4,3.5c-0.1,1.2-0.3,2.4-0.4,3.5c-0.1,1.1-0.1,1.9-0.1,2.3c0,1,0.2,1.7,0.5,2.1
		c0.4,0.4,0.8,0.7,1.2,0.9c0.5,0.2,0.9,0.3,1.2,0.4c0.4,0.1,0.5,0.3,0.5,0.6c0,0.9-0.1,1.8-0.4,2.7c-0.2,0.9-0.6,1.7-1.2,2.5
		c-0.5,0.7-1.3,1.4-2.2,1.8c-0.9,0.5-2.1,0.7-3.4,0.7c-1.9,0-3.3-0.5-4.2-1.4c-0.9-0.9-1.6-2.2-1.9-3.8c-0.9,1.4-2.2,2.6-3.7,3.6
		c-1.5,1-3.5,1.5-5.9,1.5c-1.2,0-2.3-0.1-3.3-0.4c-1-0.3-1.9-0.7-2.7-1.4s-1.4-1.4-1.8-2.4S159.3,52.3,159.3,50.8z M177.6,44.1
		c-1,0-2,0.1-3,0.2c-1,0.2-1.9,0.4-2.6,0.7c-0.8,0.3-1.4,0.8-1.9,1.3c-0.5,0.6-0.7,1.2-0.7,2c0,0.9,0.3,1.5,0.9,1.9
		c0.6,0.4,1.2,0.5,1.9,0.5c0.6,0,1.3-0.1,1.9-0.4s1.2-0.7,1.7-1.3c0.5-0.6,0.9-1.3,1.3-2.1C177.3,46.2,177.5,45.3,177.6,44.1z"/>
	<path class="st3" d="M206.9,33.6c-0.1,1.5-0.2,3-0.4,4.4c-0.1,1.5-0.3,2.8-0.4,4.1s-0.2,2.5-0.3,3.5c-0.1,1-0.1,1.8-0.1,2.4
		c0,1,0.1,1.7,0.4,2s0.6,0.5,1.2,0.5c0.4,0,0.8-0.1,1.1-0.2c0.3-0.2,0.6-0.3,0.9-0.5c0.3-0.2,0.5-0.4,0.7-0.5
		c0.2-0.2,0.5-0.2,0.7-0.2s0.5,0.2,0.8,0.5c0.2,0.3,0.4,1,0.4,2.2c0,2.2-0.6,3.9-1.8,5.1s-3.2,1.9-6.1,1.9c-2.8,0-4.9-0.7-6.3-2
		c-1.4-1.3-2-3.3-2-6c0-0.6,0-1.3,0.1-2.1c0.1-0.8,0.1-1.9,0.3-3.2s0.3-2.9,0.4-4.8s0.4-4.2,0.6-7H194c-0.3,0-0.5-0.1-0.6-0.2
		c-0.1-0.1-0.1-0.3-0.1-0.6l0.2-3c0-0.5,0.1-1,0.2-1.5c0.1-0.5,0.3-0.9,0.6-1.3c0.3-0.4,0.7-0.7,1.3-0.9c0.6-0.2,1.3-0.4,2.2-0.4
		c0.3-0.7,0.6-1.6,0.9-2.5c0.4-1,0.7-1.9,1.1-2.9c0.4-0.9,0.7-1.7,1-2.3c0.3-0.6,0.6-0.9,0.9-0.9h1.7c1.7,0,2.8,0.5,3.4,1.5
		c0.6,1,0.9,2.2,0.9,3.7c0,0.8-0.1,1.9-0.2,3.5h6.2c0.6,0,0.9,0.3,0.9,0.8l-0.2,3.2c-0.1,1.2-0.4,2.1-1,2.9
		c-0.6,0.7-1.7,1.1-3.5,1.1H206.9z"/>
	<path class="st3" d="M250.9,38.9c-0.1,1.2-0.3,2.5-0.5,3.9c-0.2,1.4-0.6,2.9-1.1,4.4c-0.5,1.5-1.2,2.9-2,4.3s-1.9,2.6-3.2,3.7
		c-1.3,1.1-2.9,1.9-4.7,2.6c-1.8,0.6-4,1-6.5,1c-2.6,0-4.7-0.4-6.5-1.1c-1.8-0.7-3.3-1.7-4.4-3c-1.1-1.3-2-2.8-2.5-4.5
		c-0.5-1.7-0.8-3.5-0.8-5.4c0-0.9,0-2,0.1-3.5s0.2-3.1,0.3-4.8c0.1-1.7,0.3-3.5,0.4-5.4c0.2-1.9,0.3-3.6,0.4-5.3
		c0.1-1.7,0.3-3.2,0.4-4.6c0.1-1.4,0.2-2.4,0.2-3.1c0-0.7,0.1-1.2,0.3-1.4c0.2-0.2,0.4-0.3,0.7-0.3h3.2c2.4,0,4,0.5,4.8,1.5
		c0.8,1,1.2,2.5,1.2,4.5c0,0.1,0,0.6-0.1,1.6c-0.1,0.9-0.1,2.1-0.2,3.4c-0.1,1.3-0.2,2.8-0.3,4.4c-0.1,1.6-0.2,3.1-0.3,4.5
		c-0.1,1.4-0.2,2.7-0.2,3.7c-0.1,1.1-0.1,1.8-0.1,2.1c0,0.7,0,1.4,0.1,2.3c0.1,0.9,0.2,1.7,0.5,2.5s0.7,1.4,1.2,2
		c0.6,0.5,1.4,0.8,2.4,0.8c1.3,0,2.4-0.5,3.3-1.4c0.8-0.9,1.5-2,1.9-3.2s0.8-2.5,0.9-3.8s0.3-2.4,0.4-3.2c0.2-2,0.3-4.1,0.5-6.2
		s0.3-4.1,0.5-6c0.1-1.8,0.2-3.5,0.3-4.8c0.1-1.4,0.1-2.3,0.1-2.8c0-0.8,0.1-1.3,0.2-1.5c0.1-0.2,0.4-0.3,0.8-0.3h3.2
		c1.3,0,2.4,0.1,3.2,0.4c0.8,0.2,1.3,0.6,1.7,0.9c0.4,0.4,0.6,0.8,0.7,1.4c0.1,0.5,0.1,1,0.1,1.6c0,0.5,0,1.5-0.1,2.9
		c-0.1,1.4-0.1,3-0.2,4.8c-0.1,1.8-0.2,3.7-0.3,5.6S251.1,37.4,250.9,38.9z"/>
	<path class="st3" d="M277.1,25.1c3.7,0,6.5,1.1,8.3,3.4c1.9,2.3,2.8,5.9,2.8,10.8c0,3.1-0.4,5.8-1.1,8.2c-0.7,2.4-1.7,4.4-3,6.1
		c-1.3,1.7-2.7,2.9-4.4,3.8c-1.7,0.9-3.5,1.3-5.5,1.3c-2.1,0-3.7-0.5-4.9-1.4c-1.2-0.9-2.1-2.2-2.8-3.8c-0.1,1.4-0.2,2.5-0.3,3.2
		s-0.1,1.3-0.2,1.8c0,0.5-0.1,0.9-0.1,1.2c0,0.4-0.1,0.8-0.1,1.4c-0.1,0.6-0.1,1.4-0.2,2.4c-0.1,1-0.2,2.4-0.4,4.2
		c0,0.5-0.1,0.8-0.3,0.9c-0.2,0.2-0.5,0.2-1,0.2H262c-1.2,0-2.2-0.1-3-0.4s-1.4-0.6-1.8-1.1s-0.8-1.1-0.9-1.7
		c-0.2-0.7-0.3-1.5-0.3-2.4c0-0.4,0.1-1.5,0.2-3.2c0.1-1.7,0.3-3.8,0.4-6.2c0.2-2.4,0.4-5,0.6-7.8c0.2-2.8,0.4-5.5,0.6-8
		c0.2-2.5,0.4-4.8,0.5-6.8c0.1-2,0.2-3.3,0.3-4.1c0-0.9,0.1-1.4,0.3-1.5c0.1-0.1,0.4-0.2,0.9-0.2h2.3c2.1,0,3.7,0.4,4.6,1.3
		s1.4,1.9,1.4,3.2c0.9-1.8,2.1-3.1,3.5-3.9C273.2,25.5,274.9,25.1,277.1,25.1z M272.8,32.9c-2,0-3.5,0.9-4.4,2.6
		c-0.9,1.7-1.4,4.1-1.4,7.1c0,1,0.1,2,0.2,3c0.1,1,0.4,1.9,0.7,2.7c0.4,0.8,0.8,1.4,1.4,1.9c0.6,0.5,1.4,0.7,2.3,0.7
		c1.7,0,3.1-0.8,4.2-2.5c1.1-1.7,1.7-4.2,1.7-7.8c0-1-0.1-1.9-0.2-2.9c-0.1-0.9-0.4-1.7-0.7-2.4c-0.4-0.7-0.8-1.3-1.5-1.7
		C274.6,33.1,273.7,32.9,272.8,32.9z"/>
</g>
<g>
</g>
</svg>
